<svg xmlns="http://www.w3.org/2000/svg" width="335.395" height="172.384" viewBox="0 0 335.395 172.384"><defs><style>.a{fill:#dfe1f2;}.b{fill:#00b2e3;}.c{fill:#54c8e8;}.d{fill:#0082ca;}.e{fill:#96daea;}</style></defs><g transform="translate(-172.435 -189.444)"><g transform="translate(172.435 189.444)"><path class="a" d="M218.344,189.444a45.909,45.909,0,0,0-45.909,45.909v45.909h45.909c23.028-7.195,45.909-20.554,45.909-45.909A45.909,45.909,0,0,0,218.344,189.444Zm0,71.965A26.056,26.056,0,1,1,244.4,235.353,26.056,26.056,0,0,1,218.344,261.409Z" transform="translate(-172.435 -189.444)"/></g><g transform="translate(194.441 246.788)"><path class="b" d="M228.035,316.444a35.545,35.545,0,0,1,33.77-24.459c.125,0,.248,0,.372,0a101.138,101.138,0,0,1-13.554-20.723A26.054,26.054,0,0,1,203.3,268.6h-.488v34.245a54.275,54.275,0,0,1,12.721,5.661C219.615,310.935,223.748,313.652,228.035,316.444Z" transform="translate(-202.812 -268.603)"/><path class="b" d="M351.94,340.77a92.377,92.377,0,0,1-22.118-5.948,35.6,35.6,0,0,1-2.894,28.462c.46.089.919.179,1.38.263a136.918,136.918,0,0,0,19.677,2.115,57.361,57.361,0,0,0,4.071-21.29C352.056,343.162,352.014,341.961,351.94,340.77Z" transform="translate(-237.016 -286.852)"/><path class="c" d="M292.724,358.063a35.54,35.54,0,0,1-64.689-28.592c-4.287-2.792-8.42-5.508-12.5-7.935a54.274,54.274,0,0,0-12.721-5.661v23.276a57.265,57.265,0,0,0,12.031,35.2c5.284,2.305,10.283,4.214,14.941,5.8a214.249,214.249,0,0,0,22.606,6.362,223.712,223.712,0,0,0,26.025,4.256c2.075.221,4.134.394,6.182.542a57.718,57.718,0,0,0,29.183-30.87,136.918,136.918,0,0,1-19.677-2.115C293.643,358.242,293.184,358.152,292.724,358.063Z" transform="translate(-202.812 -281.63)"/><path class="d" d="M279.6,291.989a35.546,35.546,0,0,1,33.441,24.585,92.378,92.378,0,0,0,22.118,5.948,57.52,57.52,0,0,0-57.4-53.918h-10.2a25.939,25.939,0,0,1-1.508,2.662A101.138,101.138,0,0,0,279.6,291.989Z" transform="translate(-220.239 -268.603)"/><path class="e" d="M256.967,408.759a214.242,214.242,0,0,1-22.606-6.362c-4.658-1.584-9.657-3.493-14.941-5.8a57.551,57.551,0,0,0,69.754,16.958c-2.049-.148-4.107-.321-6.182-.542A223.712,223.712,0,0,1,256.967,408.759Z" transform="translate(-207.389 -303.876)"/></g><g transform="translate(325.715 249.294)"><path class="a" d="M393.966,299.209q-.722,0-1.692-.042t-2.01-.17c-.693-.085-1.375-.189-2.052-.316a10.122,10.122,0,0,1-1.863-.528,3.152,3.152,0,0,1-2.325-3.09V275.309a1.859,1.859,0,0,1,.486-1.375,3.48,3.48,0,0,1,1.332-.783,16.185,16.185,0,0,1,3.6-.741,41.81,41.81,0,0,1,4.441-.233q5.416,0,8.334,1.82a6.16,6.16,0,0,1,2.918,5.626,5.082,5.082,0,0,1-1.1,3.279,6.28,6.28,0,0,1-2.961,2.009,7.352,7.352,0,0,1,3.533,2.158A5.641,5.641,0,0,1,406.023,291a6.86,6.86,0,0,1-3.108,6.2q-3.11,2.01-8.948,2.01m-2.75-16.288h3.089a4.156,4.156,0,0,0,2.644-.677,2.423,2.423,0,0,0,.824-1.989,2.122,2.122,0,0,0-.951-1.818,4.938,4.938,0,0,0-2.856-.677c-.422,0-.911.015-1.46.042a10.662,10.662,0,0,0-1.29.127Zm0,10.324a7.57,7.57,0,0,0,1.523.233c.62.043,1.212.062,1.776.062a5.248,5.248,0,0,0,2.814-.7,2.384,2.384,0,0,0,1.12-2.179,2.172,2.172,0,0,0-.929-1.989,5.369,5.369,0,0,0-2.835-.592h-3.469Z" transform="translate(-384.025 -272.094)"/><path class="a" d="M428.078,298.773a3.653,3.653,0,0,1-3.934-3.934V272.967c.31-.055.8-.133,1.481-.231a13.421,13.421,0,0,1,1.946-.148,8.754,8.754,0,0,1,1.713.148,3.036,3.036,0,0,1,1.248.528,2.283,2.283,0,0,1,.761,1.057,5.157,5.157,0,0,1,.254,1.778v16.71h9.687a5.5,5.5,0,0,1,.55,1.247,5.234,5.234,0,0,1,.254,1.628,3.254,3.254,0,0,1-.719,2.391,2.616,2.616,0,0,1-1.9.7Z" transform="translate(-395.081 -272.207)"/><path class="a" d="M454.567,285.641A15.341,15.341,0,0,1,455.6,279.8a11.767,11.767,0,0,1,7.065-6.854,16.074,16.074,0,0,1,10.534,0,12.286,12.286,0,0,1,4.252,2.6,11.994,11.994,0,0,1,2.854,4.252,15.341,15.341,0,0,1,1.037,5.837,15.779,15.779,0,0,1-1.016,5.858,11.8,11.8,0,0,1-2.813,4.273,12.013,12.013,0,0,1-4.251,2.6,15.542,15.542,0,0,1-5.33.889,15.212,15.212,0,0,1-5.33-.91,11.872,11.872,0,0,1-4.231-2.643,12.22,12.22,0,0,1-2.793-4.272,15.522,15.522,0,0,1-1.014-5.8m7.614,0q0,3.851,1.565,5.754a5.605,5.605,0,0,0,8.418,0q1.566-1.9,1.565-5.754,0-3.808-1.545-5.711a5.124,5.124,0,0,0-4.207-1.9,5.228,5.228,0,0,0-4.21,1.882q-1.587,1.882-1.587,5.732" transform="translate(-403.465 -272.062)"/><path class="a" d="M499.59,285.641a15.342,15.342,0,0,1,1.036-5.837,11.772,11.772,0,0,1,7.065-6.854,16.074,16.074,0,0,1,10.534,0,12.288,12.288,0,0,1,4.252,2.6,12,12,0,0,1,2.854,4.252,15.342,15.342,0,0,1,1.037,5.837,15.8,15.8,0,0,1-1.016,5.858,11.789,11.789,0,0,1-2.814,4.273,12,12,0,0,1-4.251,2.6,15.535,15.535,0,0,1-5.33.889,15.212,15.212,0,0,1-5.33-.91,11.876,11.876,0,0,1-4.231-2.643,12.229,12.229,0,0,1-2.792-4.272,15.522,15.522,0,0,1-1.015-5.8m7.614,0q0,3.851,1.565,5.754a5.6,5.6,0,0,0,8.418,0q1.567-1.9,1.565-5.754,0-3.808-1.544-5.711a5.129,5.129,0,0,0-4.208-1.9,5.229,5.229,0,0,0-4.21,1.882q-1.585,1.882-1.586,5.732" transform="translate(-415.872 -272.062)"/><path class="a" d="M556.307,299.209q-.722,0-1.692-.042t-2.01-.17c-.693-.085-1.375-.189-2.052-.316a10.13,10.13,0,0,1-1.862-.528,3.153,3.153,0,0,1-2.326-3.09V275.309a1.859,1.859,0,0,1,.487-1.375,3.474,3.474,0,0,1,1.332-.783,16.177,16.177,0,0,1,3.6-.741,41.834,41.834,0,0,1,4.442-.233q5.416,0,8.334,1.82a6.159,6.159,0,0,1,2.917,5.626,5.085,5.085,0,0,1-1.1,3.279,6.285,6.285,0,0,1-2.962,2.009,7.346,7.346,0,0,1,3.532,2.158A5.638,5.638,0,0,1,568.363,291a6.859,6.859,0,0,1-3.109,6.2q-3.109,2.01-8.947,2.01m-2.75-16.288h3.089a4.154,4.154,0,0,0,2.644-.677,2.423,2.423,0,0,0,.824-1.989,2.122,2.122,0,0,0-.951-1.818,4.94,4.94,0,0,0-2.856-.677q-.635,0-1.46.042a10.662,10.662,0,0,0-1.289.127Zm0,10.324a7.569,7.569,0,0,0,1.523.233c.621.043,1.213.062,1.776.062a5.245,5.245,0,0,0,2.814-.7,2.383,2.383,0,0,0,1.121-2.179,2.172,2.172,0,0,0-.929-1.989,5.369,5.369,0,0,0-2.835-.592h-3.469Z" transform="translate(-428.763 -272.094)"/><path class="a" d="M593.887,298.492a11.785,11.785,0,0,1-1.46.254,15.509,15.509,0,0,1-1.968.128,8.842,8.842,0,0,1-1.714-.148,3.065,3.065,0,0,1-1.248-.529,2.282,2.282,0,0,1-.76-1.058,5.141,5.141,0,0,1-.254-1.776V273.025c.309-.055.8-.133,1.482-.232a13.417,13.417,0,0,1,1.945-.149,8.762,8.762,0,0,1,1.713.149,3.024,3.024,0,0,1,1.247.529,2.286,2.286,0,0,1,.762,1.056,5.181,5.181,0,0,1,.254,1.778Z" transform="translate(-439.818 -272.223)"/><path class="a" d="M618.048,279.044H607.64a5.427,5.427,0,0,1-.55-1.269,5.57,5.57,0,0,1-.254-1.692,3.207,3.207,0,0,1,.74-2.37A2.646,2.646,0,0,1,609.5,273h15.78a4.978,4.978,0,0,1,1.861,4.06,4.9,4.9,0,0,1-.485,2.094,9.359,9.359,0,0,1-1.25,1.967l-9.6,11.592h10.83a5.957,5.957,0,0,1,.8,2.962,3.2,3.2,0,0,1-.739,2.368,2.646,2.646,0,0,1-1.927.719H608.105a4.447,4.447,0,0,1-1.184-1.608,5.5,5.5,0,0,1-.465-2.326,4.793,4.793,0,0,1,.55-2.157,10.891,10.891,0,0,1,1.311-2.031Z" transform="translate(-445.323 -272.319)"/></g><g transform="translate(326.105 291.055)"><path class="b" d="M389.891,355.947a14.671,14.671,0,0,1-1.777.105,4.3,4.3,0,0,1-2.769-.676,3.133,3.133,0,0,1-.782-2.454V330.048q.465-.085,1.332-.212a11.88,11.88,0,0,1,1.713-.128,4.642,4.642,0,0,1,2.748.635,2.977,2.977,0,0,1,.846,2.495v7.44h9.091V330.048q.464-.085,1.331-.212a12.187,12.187,0,0,1,1.755-.128,4.348,4.348,0,0,1,2.706.677,3.119,3.119,0,0,1,.846,2.538v22.79a9.668,9.668,0,0,1-1.311.234,14.664,14.664,0,0,1-1.776.105,4.3,4.3,0,0,1-2.77-.676,3.138,3.138,0,0,1-.782-2.454v-7.4H391.2v10.189A9.652,9.652,0,0,1,389.891,355.947Z" transform="translate(-384.563 -329.709)"/><path class="b" d="M443.116,347.5a12.638,12.638,0,0,1-.761,4.5,9.374,9.374,0,0,1-2.178,3.4,9.75,9.75,0,0,1-3.4,2.156,12.324,12.324,0,0,1-4.44.762,12.851,12.851,0,0,1-4.46-.74,9.472,9.472,0,0,1-3.425-2.137,9.346,9.346,0,0,1-2.178-3.4,12.747,12.747,0,0,1-.761-4.546,12.219,12.219,0,0,1,.782-4.461,9.6,9.6,0,0,1,2.2-3.4,9.709,9.709,0,0,1,3.425-2.156,12.38,12.38,0,0,1,4.418-.762,12.215,12.215,0,0,1,4.4.762,9.63,9.63,0,0,1,3.4,2.177,9.871,9.871,0,0,1,2.2,3.4A12.041,12.041,0,0,1,443.116,347.5Zm-10.783-5.708a3.619,3.619,0,0,0-3.086,1.481,6.988,6.988,0,0,0-1.1,4.227,7.172,7.172,0,0,0,1.078,4.293,4.021,4.021,0,0,0,6.216-.022,7.184,7.184,0,0,0,1.078-4.27,7.01,7.01,0,0,0-1.1-4.206A3.6,3.6,0,0,0,432.333,341.787Z" transform="translate(-394.745 -331.639)"/><path class="b" d="M487.428,357.643a9.729,9.729,0,0,1-1.226.234,12.633,12.633,0,0,1-1.691.105,4.675,4.675,0,0,1-2.728-.612,2.838,2.838,0,0,1-.824-2.39V344.493a2.568,2.568,0,0,0-.761-2.051,3.076,3.076,0,0,0-2.071-.656,4.246,4.246,0,0,0-1.586.3,5.39,5.39,0,0,0-1.332.762c.028.141.049.282.064.423s.021.283.021.422v13.953a9.744,9.744,0,0,1-1.226.234,12.65,12.65,0,0,1-1.692.105,4.671,4.671,0,0,1-2.727-.612,2.838,2.838,0,0,1-.825-2.39V344.493a2.437,2.437,0,0,0-.845-2.051,3.29,3.29,0,0,0-2.072-.656,4.486,4.486,0,0,0-1.607.275,10.2,10.2,0,0,0-1.184.528v15.053a8.048,8.048,0,0,1-1.184.234,12.638,12.638,0,0,1-1.692.105,4.775,4.775,0,0,1-2.747-.612,2.8,2.8,0,0,1-.846-2.39V341.914a3.074,3.074,0,0,1,.464-1.776,5.113,5.113,0,0,1,1.311-1.268,11.653,11.653,0,0,1,3.446-1.566,15.414,15.414,0,0,1,4.292-.592,11.433,11.433,0,0,1,3.361.487,9.013,9.013,0,0,1,2.9,1.5,13.058,13.058,0,0,1,2.875-1.415,11.384,11.384,0,0,1,3.805-.572,12.124,12.124,0,0,1,3.15.4,7.174,7.174,0,0,1,2.643,1.311,6.61,6.61,0,0,1,1.839,2.367,8.116,8.116,0,0,1,.7,3.53Z" transform="translate(-404.428 -331.639)"/><path class="b" d="M510.876,350.2a4.112,4.112,0,0,0,2.072,2.516,7.558,7.558,0,0,0,3.425.74,11.212,11.212,0,0,0,3.34-.485,11.418,11.418,0,0,0,2.537-1.079,3.577,3.577,0,0,1,1.057,1.1,2.738,2.738,0,0,1,.422,1.479,2.575,2.575,0,0,1-.592,1.692,4.583,4.583,0,0,1-1.627,1.206,9.374,9.374,0,0,1-2.453.717,19.23,19.23,0,0,1-3.107.234,14.65,14.65,0,0,1-4.609-.7,10.019,10.019,0,0,1-3.636-2.072,9.475,9.475,0,0,1-2.389-3.446,12.533,12.533,0,0,1-.867-4.862,11.668,11.668,0,0,1,.867-4.693,9.432,9.432,0,0,1,2.325-3.3,9.2,9.2,0,0,1,3.34-1.923,12.391,12.391,0,0,1,3.869-.614,11.464,11.464,0,0,1,3.953.656,9.151,9.151,0,0,1,3.087,1.839,8.294,8.294,0,0,1,2.008,2.834,8.885,8.885,0,0,1,.719,3.594,2.652,2.652,0,0,1-.719,2.028,3.749,3.749,0,0,1-2.029.89Zm4.017-8.71a4.269,4.269,0,0,0-3.024,1.121,4.9,4.9,0,0,0-1.416,3.235l8.076-1.311a3.368,3.368,0,0,0-3.637-3.045Z" transform="translate(-417.601 -331.639)"/></g></g></svg>