<svg xmlns="http://www.w3.org/2000/svg" width="48.917" height="48.917" viewBox="0 0 48.917 48.917"><defs><style>.a{fill:#fff;}.b{fill:#f8f8f8;}</style></defs><path class="a" d="M24.458,48.917A24.458,24.458,0,1,1,48.917,24.458,24.458,24.458,0,0,1,24.458,48.917Zm0-43.857a19.4,19.4,0,1,0,19.4,19.4,19.4,19.4,0,0,0-19.4-19.4Z"/><g transform="translate(13.343 12.769)"><path class="b" d="M28,7.57H10.17a.692.692,0,0,0-.692.725v6.039H8.433a.523.523,0,0,0,0,1.046H9.479v3.036H8.433a.523.523,0,1,0,0,1.046H9.479v3.121H8.433a.506.506,0,0,0-.523.506.523.523,0,0,0,.523.523H9.479v6.056a.692.692,0,0,0,.692.708H28a.708.708,0,0,0,.708-.708V8.3A.708.708,0,0,0,28,7.57ZM24.2,24.623H14a5.06,5.06,0,0,1,5.06-5.06h0a3.053,3.053,0,1,1,2.17-.888,3.07,3.07,0,0,1-2.17.888h0a5.06,5.06,0,0,1,5.06,5.06Z" transform="translate(-7.91 -7.57)"/></g></svg>