<svg xmlns="http://www.w3.org/2000/svg" width="49.215" height="49.215" viewBox="0 0 49.215 49.215"><defs><style>.a{fill:#fff;}</style></defs><path class="a" d="M24.607,49.215A24.607,24.607,0,1,1,49.215,24.607,24.607,24.607,0,0,1,24.607,49.215Zm0-44.123A19.516,19.516,0,1,0,44.123,24.607,19.516,19.516,0,0,0,24.607,5.091Z"/><g transform="translate(13.407 11.267)"><path class="a" d="M30.284,10.646a.95.95,0,0,0-.95-.95H25.21V7.251a.543.543,0,0,0-.526-.611H22.223a.543.543,0,0,0-.577.611V9.746H16.555V7.251a.577.577,0,0,0-.543-.611H13.483a.577.577,0,0,0-.526.611V9.746H8.85a.933.933,0,0,0-.95.9v3.886H30.284Z" transform="translate(-7.9 -6.639)"/><path class="a" d="M7.91,12.23V26.214a.95.95,0,0,0,.934.95h20.5a.933.933,0,0,0,.933-.95V12.23Zm7.2,10.674a.8.8,0,0,1-.781.781H12.17a.8.8,0,0,1-.8-.781V20.749a.8.8,0,0,1,.8-.8h2.155a.8.8,0,0,1,.781.8Zm0-5.329a.781.781,0,0,1-.781.781H12.17a.781.781,0,0,1-.8-.781V15.42a.781.781,0,0,1,.8-.781h2.155a.781.781,0,0,1,.781.781ZM20.943,22.9a.8.8,0,0,1-.781.781H18.007a.8.8,0,0,1-.8-.781V20.749a.8.8,0,0,1,.8-.8h2.155a.8.8,0,0,1,.781.8Zm0-5.329a.764.764,0,0,1-.781.781H18.024a.764.764,0,0,1-.781-.781V15.42a.764.764,0,0,1,.781-.781H20.18a.764.764,0,0,1,.781.781ZM26.8,22.9a.781.781,0,0,1-.781.781H23.879A.8.8,0,0,1,23.1,22.9V20.749a.8.8,0,0,1,.781-.8h2.155a.781.781,0,0,1,.781.8Zm0-5.329a.764.764,0,0,1-.781.781H23.879a.781.781,0,0,1-.781-.781V15.42a.781.781,0,0,1,.781-.781h2.155a.764.764,0,0,1,.781.781Z" transform="translate(-7.893 -2.742)"/></g></svg>