<svg xmlns="http://www.w3.org/2000/svg" width="50.091" height="45.076" viewBox="0 0 50.091 45.076"><defs><style>.a{fill:#fff;}</style></defs><g transform="translate(-236 523)"><g transform="translate(236 -523)"><path class="a" d="M26.088,5.015H47.574a2.5,2.5,0,0,1,2.517,2.5V42.578a2.5,2.5,0,0,1-2.517,2.5H2.5a2.5,2.5,0,0,1-2.5-2.5V2.5A2.5,2.5,0,0,1,2.5,0H21.073Zm-21.073,0V40.061H45.076V10.011H24l-5.015-5ZM22.538,15.025h5.015v20.04H22.538Zm10.011,7.513h5.015V35.065H32.549ZM12.527,27.553h5v7.513h-5Z"/></g></g></svg>